<svg
    aria-hidden="true"
    xmlns="http://www.w3.org/2000/svg"
    overflow="hidden">

    <defs>
        <symbol id="celular" width="10" height="16" viewBox="0 0 10 16">
            <path
                d="M8.5 0H1.5C0.672848 0 0 0.672848 0 1.5V14.5C0 15.3272 0.672848 16 1.5 16H8.5C9.32715 16 10 15.3272 10 14.5V1.5C10 0.672848 9.32715 0 8.5 0ZM1.5 1H8.5C8.77588 1 9 1.22412 9 1.5V12H1V1.5C1 1.22412 1.22412 1 1.5 1ZM8.5 15H1.5C1.22412 15 1 14.7759 1 14.5V13H9V14.5C9 14.7759 8.77588 15 8.5 15Z"
                fill="#" />
            <path
                d="M2.35355 13.7389C2.54882 13.9213 2.54882 14.2169 2.35355 14.3992C2.15828 14.5816 1.84172 14.5816 1.64645 14.3992C1.45118 14.2169 1.45118 13.9213 1.64645 13.7389C1.84172 13.5566 2.15828 13.5566 2.35355 13.7389Z"
                fill="#" />
        </symbol>

        <symbol id="sobre" width="16" height="17" viewBox="0 0 17 12">
            <path
                d="M14.5 0H1.50001C0.672854 0 0 0.672853 0 1.50001V10.5C0 11.3271 0.672854 12 1.50001 12H14.5C15.3271 12 16 11.3271 16 10.5V1.50001C16 0.672853 15.3271 0 14.5 0ZM14.5 0.999994C14.5679 0.999994 14.6325 1.01409 14.6916 1.0387L8 6.83838L1.30833 1.0387C1.36742 1.01412 1.43204 0.999994 1.49998 0.999994H14.5ZM14.5 11H1.50001C1.22414 11 0.999996 10.7759 0.999996 10.5V2.09521L7.67236 7.87792C7.76661 7.95944 7.8833 7.99999 8 7.99999C8.1167 7.99999 8.23339 7.95948 8.32764 7.87792L15 2.09521V10.5C15 10.7759 14.7759 11 14.5 11Z"
                fill="#" />
        </symbol>

        <!-- CUSTOMERS -->

        <symbol id="cliente1" width="100" height="100" viewBox="-60 10 100 46">
            <path fill-rule="evenodd" clip-rule="evenodd"
                d="M6 0.0869751L13.0078 6.7211L0 6.71344V38.9007H34V26.594L41 33.2208V0.0869751H6ZM33.6924 25.8153L13.8226 7.00493H33.6924V25.8153ZM27.5231 34.1925H5.38008V12.5449H6.9453V32.7267H27.5231V34.1925ZM10.6089 43.1861L9.79102 44.8707L8.97314 43.1861H8.28711L9.48096 45.4322V46.7408H10.1011V45.4322L11.2925 43.1861H10.6089ZM11.6367 46.7408L11.9248 45.9131H13.3018L13.5923 46.7408H14.2368L12.8916 43.1861H12.3374L10.9946 46.7408H11.6367ZM12.6133 43.9405L13.1284 45.4151H12.0981L12.6133 43.9405ZM15.8701 45.3297C15.7806 45.4664 15.7358 45.6169 15.7358 45.7813C15.7358 46.0808 15.8408 46.3241 16.0508 46.5113C16.2624 46.6968 16.5439 46.7896 16.8955 46.7896C17.2471 46.7896 17.5498 46.6944 17.8037 46.504L18.0039 46.7408H18.6924L18.1699 46.1231C18.375 45.8432 18.4775 45.4843 18.4775 45.0464H17.9624C17.9624 45.2857 17.9128 45.503 17.8135 45.6983L17.1274 44.8878L17.3691 44.712C17.54 44.5883 17.6629 44.4646 17.7378 44.3409C17.8127 44.2156 17.8501 44.0788 17.8501 43.9307C17.8501 43.7061 17.7671 43.5181 17.6011 43.3668C17.4367 43.2138 17.2251 43.1373 16.9663 43.1373C16.6798 43.1373 16.452 43.2186 16.2827 43.3814C16.1134 43.5425 16.0288 43.7623 16.0288 44.0406C16.0288 44.1545 16.0557 44.2725 16.1094 44.3946C16.1647 44.5167 16.2616 44.6648 16.3999 44.8389C16.1362 45.0277 15.9596 45.1913 15.8701 45.3297ZM17.4741 46.1158C17.3 46.2492 17.1128 46.316 16.9126 46.316C16.7352 46.316 16.5936 46.2647 16.4878 46.1622C16.382 46.0596 16.3291 45.9262 16.3291 45.7618C16.3291 45.5714 16.4268 45.4021 16.6221 45.254L16.6978 45.2003L17.4741 46.1158ZM16.8369 44.5411C16.6693 44.3344 16.5854 44.1627 16.5854 44.0259C16.5854 43.9071 16.6196 43.8087 16.688 43.7305C16.7563 43.6524 16.8483 43.6133 16.9639 43.6133C17.0713 43.6133 17.16 43.6467 17.23 43.7134C17.3 43.7785 17.335 43.8575 17.335 43.9503C17.335 44.0902 17.2845 44.205 17.1836 44.2945L17.1079 44.3555L16.8369 44.5411ZM22.623 46.4722C22.8672 46.259 23.0072 45.9628 23.043 45.5836H22.4277C22.3952 45.8375 22.3179 46.0189 22.1958 46.128C22.0737 46.237 21.8914 46.2916 21.6489 46.2916C21.3836 46.2916 21.1818 46.1907 21.0435 45.9888C20.9067 45.787 20.8384 45.494 20.8384 45.1099V44.795C20.8416 44.4158 20.9149 44.1285 21.0581 43.9332C21.203 43.7362 21.4097 43.6378 21.6782 43.6378C21.9093 43.6378 22.0843 43.6947 22.2031 43.8087C22.3236 43.921 22.3984 44.1049 22.4277 44.3604H23.043C23.0039 43.9714 22.8647 43.6703 22.6255 43.4571C22.3862 43.2439 22.0705 43.1373 21.6782 43.1373C21.3869 43.1373 21.1297 43.2064 20.9067 43.3448C20.6854 43.4831 20.5153 43.6801 20.3965 43.9356C20.2777 44.1911 20.2183 44.4866 20.2183 44.8218V45.1539C20.2231 45.481 20.2842 45.7683 20.4014 46.0157C20.5186 46.2631 20.6846 46.4543 20.8994 46.5894C21.1159 46.7229 21.3657 46.7896 21.6489 46.7896C22.0542 46.7896 22.3789 46.6838 22.623 46.4722ZM26.2534 45.9742C26.3739 45.7105 26.4341 45.4045 26.4341 45.0562V44.8585C26.4325 44.5118 26.3706 44.2082 26.2485 43.9478C26.1265 43.6858 25.9531 43.4856 25.7285 43.3472C25.5055 43.2073 25.2492 43.1373 24.9595 43.1373C24.6698 43.1373 24.4126 43.2081 24.188 43.3497C23.965 43.4896 23.7917 43.6923 23.668 43.9576C23.5459 44.2229 23.4849 44.5289 23.4849 44.8755V45.0757C23.4865 45.4159 23.5483 45.7162 23.6704 45.9766C23.7941 46.237 23.9683 46.438 24.1929 46.5797C24.4191 46.7196 24.6763 46.7896 24.9644 46.7896C25.2557 46.7896 25.5129 46.7196 25.7358 46.5797C25.9604 46.438 26.133 46.2362 26.2534 45.9742ZM25.5918 43.9649C25.7415 44.1749 25.8164 44.4768 25.8164 44.8707V45.0562C25.8164 45.4566 25.7423 45.761 25.5942 45.9693C25.4478 46.1776 25.2378 46.2818 24.9644 46.2818C24.6942 46.2818 24.4826 46.1752 24.3296 45.962C24.1782 45.7488 24.1025 45.4468 24.1025 45.0562V44.8511C24.1058 44.4686 24.1823 44.1732 24.332 43.9649C24.4834 43.7549 24.6925 43.65 24.9595 43.65C25.2329 43.65 25.4437 43.7549 25.5918 43.9649Z"
                fill="#" />
        </symbol>

        <symbol id="cliente2" width="100" height="100" viewBox="-60 10 100 50">
            <path fill-rule="evenodd" clip-rule="evenodd"
                d="M17.1136 3.0215H16.977C16.7671 3.00878 16.5571 3.0037 16.3471 2.99861H16.3471H16.3269H15.8918C15.4946 2.99861 15.0898 3.00878 14.6876 3.02912C14.6573 3.02692 14.6269 3.02692 14.5966 3.02912C10.9522 3.23561 7.38171 4.14649 4.08049 5.7119L3.6479 5.92042V28.0616L4.65979 27.7183C5.54773 27.4131 6.49384 27.1385 7.47285 26.8842C10.1193 26.2048 12.8367 25.8437 15.568 25.8085V28.7176C15.2062 28.7202 14.8546 28.7303 14.503 28.7481H14.4195C12.3175 28.8634 10.2317 29.1837 8.19129 29.7043C5.60716 30.3512 3.11433 31.3226 0.771606 32.5956V4.19886C3.20469 2.77973 5.82533 1.71385 8.55557 1.03294C10.9527 0.414027 13.4169 0.0962821 15.8918 0.0869751H16.3193C16.8303 0.0996897 17.3287 0.122576 17.7967 0.158177C19.0297 0.244751 20.2528 0.439603 21.4521 0.740503V3.60382C20.2874 3.33248 19.1032 3.15393 17.9105 3.06981C17.8863 3.06777 17.8621 3.0657 17.8379 3.06363C17.5911 3.04258 17.344 3.0215 17.1136 3.0215ZM22.1528 5.94836C22.7877 5.99667 23.4455 6.01956 24.1108 6.01956C26.7125 6.01005 29.3031 5.67781 31.8239 5.03037C34.4068 4.38094 36.8986 3.40875 39.2411 2.13654V30.0272C36.8067 31.4455 34.1853 32.5113 31.4546 33.1931C29.0571 33.8097 26.5931 34.1265 24.1184 34.1365C22.2433 34.1517 20.3737 33.9313 18.553 33.4805V5.40926C18.983 5.50844 19.4257 5.59998 19.876 5.67627C20.6147 5.80087 21.3939 5.89242 22.1528 5.94836ZM36.3471 6.16451L35.3352 6.50526C34.4042 6.81804 33.4657 7.09775 32.5221 7.34696C29.7749 8.05293 26.9514 8.41507 24.1158 8.42515C23.4556 8.42515 22.8485 8.40735 22.2616 8.36921L21.4546 8.31581V28.4048V31.0927L22.1477 31.1537C22.7903 31.2096 23.4531 31.2376 24.1209 31.2376C26.3544 31.2281 28.5781 30.9403 30.7412 30.3806C32.5223 29.9339 34.2552 29.3112 35.9145 28.5218L36.3471 28.3133V6.16451Z"
                fill="#" />
            <path
                d="M2.73713 42.2994C2.59166 42.1485 2.41629 42.0301 2.22236 41.9516C2.02844 41.8732 1.82029 41.8366 1.61141 41.8442C1.38879 41.8413 1.16781 41.8828 0.961267 41.9663C0.771901 42.0417 0.599767 42.1551 0.455322 42.2994C0.312451 42.4442 0.201292 42.6175 0.128988 42.808C0.0496792 43.0077 0.0101425 43.2211 0.0126205 43.4361V47.2301C0.00357283 47.4975 0.0545882 47.7634 0.161874 48.0083C0.251433 48.2027 0.380725 48.376 0.541333 48.5168C0.692953 48.6445 0.870978 48.7366 1.06246 48.7864C1.24694 48.8382 1.43755 48.8648 1.62911 48.8652C1.84041 48.8673 2.04953 48.8222 2.24131 48.733C2.43095 48.65 2.60277 48.5308 2.74725 48.3821C2.88814 48.2347 3.00052 48.0622 3.07865 47.8735C3.15973 47.6822 3.20105 47.4762 3.20007 47.2683V46.8436H2.20842V47.1818C2.21137 47.2973 2.1916 47.4122 2.15024 47.52C2.11794 47.6008 2.06877 47.6736 2.00604 47.7336C1.94461 47.7833 1.87416 47.8204 1.79861 47.843C1.73164 47.8653 1.6617 47.8773 1.59117 47.8786C1.50263 47.8889 1.41296 47.8755 1.33122 47.8398C1.24948 47.804 1.17858 47.7473 1.1257 47.6751C1.03222 47.5227 0.986395 47.3455 0.994154 47.1666V43.6294C0.988002 43.4332 1.02969 43.2385 1.11558 43.0623C1.16706 42.9822 1.2399 42.9183 1.32578 42.8778C1.41166 42.8374 1.50713 42.822 1.60129 42.8334C1.68676 42.8304 1.7717 42.8482 1.8488 42.8854C1.92591 42.9226 1.99289 42.9781 2.04399 43.047C2.15496 43.1927 2.21298 43.3722 2.20842 43.5556V43.8837H3.18995V43.4971C3.19195 43.2701 3.15073 43.0449 3.06853 42.8334C2.99527 42.6347 2.88251 42.453 2.73713 42.2994Z"
                fill="#" />
            <path
                d="M8.62892 42.2561C8.31271 41.9891 7.91362 41.8416 7.50066 41.8391C7.29868 41.84 7.09838 41.8761 6.9087 41.9459C6.71613 42.0149 6.53841 42.1202 6.38505 42.2561C6.22076 42.4038 6.08968 42.585 6.00053 42.7876C5.90063 43.0194 5.85146 43.27 5.85634 43.5225V47.1614C5.8495 47.4174 5.89873 47.6718 6.00053 47.9065C6.09028 48.1022 6.22152 48.2758 6.38505 48.4151C6.53665 48.5558 6.71468 48.6648 6.9087 48.7355C7.09838 48.8053 7.29868 48.8414 7.50066 48.8423C7.70269 48.8419 7.90307 48.8058 8.09262 48.7355C8.28995 48.6638 8.47195 48.5551 8.62892 48.4151C8.7871 48.2732 8.91454 48.1 9.00332 47.9065C9.10512 47.6718 9.15435 47.4174 9.14751 47.1614V43.5225C9.15239 43.27 9.10322 43.0194 9.00332 42.7876C8.91505 42.5871 8.78775 42.4064 8.62892 42.2561ZM8.16598 47.1614C8.17434 47.2584 8.16095 47.356 8.1268 47.4471C8.09265 47.5382 8.03861 47.6205 7.96866 47.6878C7.83768 47.7977 7.67251 47.8578 7.50193 47.8578C7.33135 47.8578 7.16617 47.7977 7.03519 47.6878C6.96524 47.6205 6.9112 47.5382 6.87705 47.4471C6.8429 47.356 6.82952 47.2584 6.83787 47.1614V43.5225C6.82952 43.4255 6.8429 43.3279 6.87705 43.2368C6.9112 43.1457 6.96524 43.0635 7.03519 42.9961C7.16617 42.8863 7.33135 42.8261 7.50193 42.8261C7.67251 42.8261 7.83768 42.8863 7.96866 42.9961C8.03861 43.0635 8.09265 43.1457 8.1268 43.2368C8.16095 43.3279 8.17434 43.4255 8.16598 43.5225V47.1614Z"
                fill="#" />
            <path
                d="M16.3673 48.7864V41.8977H15.4136L14.1614 45.5442H14.1437L12.8813 41.8977H11.9377V48.7864H12.9218V44.5957H12.9395L13.9033 47.5582H14.3941L15.3655 44.5957H15.3832V48.7864H16.3673Z"
                fill="#" />
            <path
                d="M21.9581 42.3807C21.8065 42.2107 21.6153 42.0814 21.4015 42.0043C21.1712 41.9294 20.9302 41.8933 20.6881 41.8975H19.226V48.7863H20.2075V46.0959H20.7134C21.0197 46.1098 21.3244 46.0451 21.5988 45.9077C21.822 45.7838 22.0081 45.602 22.1377 45.3813C22.2512 45.1981 22.3277 44.9942 22.3628 44.7812C22.4014 44.522 22.4192 44.2601 22.4159 43.998C22.4255 43.6672 22.3932 43.3365 22.3198 43.0139C22.2543 42.7755 22.1299 42.5577 21.9581 42.3807ZM21.4521 44.4812C21.4479 44.6059 21.4168 44.7282 21.361 44.8397C21.3049 44.9456 21.2162 45.0304 21.1081 45.0813C20.9627 45.1463 20.8041 45.1759 20.6451 45.1677H20.1974V42.8257H20.7033C20.8557 42.8182 21.0075 42.8479 21.146 42.9122C21.2475 42.9704 21.3281 43.0594 21.3762 43.1665C21.4299 43.2875 21.4591 43.418 21.4622 43.5504C21.4622 43.6954 21.4622 43.848 21.4622 44.0082C21.4622 44.1684 21.4723 44.3337 21.4622 44.4812H21.4521Z"
                fill="#" />
            <path
                d="M26.6077 41.8977H25.8032L24.2854 48.7864H25.2669L25.5553 47.3065H26.8935L27.1819 48.7864H28.1635L26.6077 41.8977ZM25.702 46.3681L26.1852 43.871H26.2029L26.6836 46.3681H25.702Z"
                fill="#" />
            <path
                d="M32.9497 46.0477H32.932L31.4496 41.8977H30.506V48.7864H31.4875V44.644H31.5078L33.0079 48.7864H33.9312V41.8977H32.9497V46.0477Z"
                fill="#" />
            <path
                d="M38.9476 41.8977L38.1583 44.6364H38.1381L37.3488 41.8977H36.3091L37.6574 45.8748V48.7864H38.639V45.8748L39.9873 41.8977H38.9476Z"
                fill="#" />
        </symbol>

        <symbol id="cliente3" width="170" height="100" viewBox="-25 -15 100 100">
            <path
                d="M7.40628 41.1885C7.42219 41.1888 7.43786 41.192 7.45238 41.1977C7.46689 41.2034 7.47995 41.2115 7.4908 41.2216L7.70892 41.4301C7.53961 41.5989 7.33035 41.7338 7.09546 41.8258C6.82039 41.9261 6.52394 41.9746 6.22572 41.9679C5.94548 41.973 5.66705 41.9278 5.40777 41.8353C5.17389 41.7503 4.96376 41.6226 4.79159 41.4609C4.61588 41.2932 4.48054 41.0967 4.39353 40.8828C4.29824 40.6445 4.25119 40.3936 4.25448 40.1413C4.25061 39.8873 4.30147 39.635 4.40443 39.3973C4.49968 39.1821 4.64335 38.9856 4.82704 38.8192C5.01321 38.6561 5.23592 38.5279 5.48139 38.4425C5.74992 38.3521 6.03588 38.307 6.32387 38.3098C6.59138 38.3042 6.85747 38.3453 7.10637 38.4307C7.32231 38.5121 7.52058 38.6251 7.69256 38.7647L7.50988 38.9874C7.49726 39.0031 7.48158 39.0168 7.46353 39.0277C7.44198 39.0406 7.41593 39.0464 7.38992 39.0443C7.36162 39.0426 7.33434 39.0344 7.31085 39.0206L7.2127 38.9614L7.07637 38.8856C7.01753 38.8574 6.95649 38.8329 6.8937 38.8121C6.81283 38.787 6.72989 38.7672 6.64559 38.7529C6.5386 38.7358 6.42992 38.7278 6.32114 38.7292C6.11376 38.7269 5.90796 38.7608 5.71587 38.8287C5.53672 38.8916 5.37501 38.9869 5.24146 39.1083C5.10551 39.2373 5.00074 39.3888 4.93337 39.5537C4.85658 39.7423 4.81874 39.9412 4.82158 40.1413C4.81831 40.3444 4.85615 40.5465 4.93337 40.7383C4.9999 40.9018 5.10272 41.0523 5.23601 41.1814C5.36088 41.3017 5.51567 41.3956 5.6886 41.4562C5.86657 41.5203 6.0576 41.5525 6.25025 41.551C6.36154 41.5524 6.47278 41.5461 6.58288 41.532C6.76267 41.5129 6.93513 41.4587 7.08728 41.3733C7.16359 41.3295 7.23563 41.2804 7.30267 41.2264C7.3307 41.2031 7.36756 41.1896 7.40628 41.1885Z"
                fill="#" />
            <path
                d="M13.7044 40.1408C13.7078 40.3922 13.6579 40.642 13.5572 40.8776C13.4684 41.0914 13.3284 41.2863 13.1465 41.4497C12.9646 41.613 12.745 41.741 12.5021 41.8252C11.9683 42.0022 11.3782 42.0022 10.8444 41.8252C10.603 41.7397 10.3848 41.6114 10.2037 41.4486C10.0219 41.2822 9.88095 41.0856 9.78927 40.8705C9.59287 40.3933 9.59287 39.8718 9.78927 39.3946C9.88228 39.1794 10.0231 38.9822 10.2037 38.8142C10.3864 38.6564 10.6045 38.533 10.8444 38.4517C11.3775 38.2716 11.969 38.2716 12.5021 38.4517C12.7443 38.5372 12.9634 38.6655 13.1455 38.8284C13.325 38.9931 13.465 39.1872 13.5572 39.3993C13.6582 39.6366 13.7081 39.8879 13.7044 40.1408ZM13.1319 40.1408C13.1362 39.9398 13.1011 39.7395 13.0283 39.5486C12.9672 39.385 12.8679 39.2342 12.7366 39.1056C12.6087 38.9839 12.4513 38.8884 12.2758 38.826C11.8879 38.6965 11.4586 38.6965 11.0707 38.826C10.8952 38.8884 10.7378 38.9839 10.6099 39.1056C10.4768 39.2335 10.3764 39.3845 10.3155 39.5486C10.1768 39.9342 10.1768 40.3475 10.3155 40.7331C10.377 40.897 10.4773 41.0479 10.6099 41.1761C10.7379 41.2971 10.8953 41.3918 11.0707 41.4533C11.4593 41.5795 11.8872 41.5795 12.2758 41.4533C12.4512 41.3918 12.6086 41.2971 12.7366 41.1761C12.8673 41.0471 12.9665 40.8964 13.0283 40.7331C13.1015 40.5423 13.1365 40.342 13.1319 40.1408Z"
                fill="#" />
            <path
                d="M18.0013 40.7617L18.0586 40.8944C18.0804 40.847 18.0995 40.8044 18.1213 40.7617C18.1421 40.7172 18.1657 40.6737 18.1922 40.6315L19.5854 38.4309C19.6127 38.393 19.6372 38.3693 19.6645 38.3622C19.7015 38.3524 19.7403 38.3484 19.779 38.3503H20.1907V41.9295H19.7026V39.2978C19.7026 39.2647 19.7026 39.2268 19.7026 39.1865C19.7 39.1455 19.7 39.1044 19.7026 39.0633L18.3012 41.2947C18.2834 41.3281 18.255 41.3564 18.2192 41.3761C18.1834 41.3959 18.1418 41.4063 18.0995 41.406H18.0204C17.9779 41.4066 17.9362 41.3963 17.9004 41.3765C17.8646 41.3568 17.8362 41.3283 17.8186 41.2947L16.3763 39.0491C16.3763 39.0918 16.3763 39.1344 16.3763 39.177C16.3763 39.2197 16.3763 39.2576 16.3763 39.2907V41.9224H15.9047V38.3503H16.3164C16.355 38.3484 16.3938 38.3524 16.4309 38.3622C16.4647 38.3767 16.4916 38.401 16.5072 38.4309L17.9304 40.6338C17.9584 40.6745 17.9821 40.7174 18.0013 40.7617Z"
                fill="#" />
            <path
                d="M23.2443 40.5839V41.9246H22.699V38.3502H23.915C24.1446 38.3464 24.3735 38.3727 24.5939 38.4284C24.7704 38.4718 24.9341 38.5478 25.0738 38.651C25.1949 38.7478 25.2883 38.8679 25.3464 39.0016C25.4108 39.1474 25.4423 39.3026 25.4391 39.4588C25.4415 39.6155 25.4072 39.7711 25.3383 39.9159C25.2727 40.0531 25.172 40.1754 25.0438 40.2736C24.9039 40.3812 24.7395 40.4619 24.5612 40.5105C24.3489 40.5694 24.1269 40.5974 23.9041 40.5934L23.2443 40.5839ZM23.2443 40.2002H23.9041C24.0475 40.2018 24.1901 40.1834 24.3267 40.1457C24.4394 40.1127 24.5433 40.0604 24.6321 39.9917C24.714 39.9262 24.7775 39.8451 24.8175 39.7549C24.8621 39.6594 24.8844 39.5571 24.8829 39.454C24.8893 39.3547 24.8706 39.2553 24.8282 39.1628C24.7859 39.0704 24.7208 38.9871 24.6376 38.9187C24.4293 38.7774 24.1676 38.709 23.9041 38.7268H23.2443V40.2002Z"
                fill="#" />
            <path
                d="M30.5731 41.9294H30.1423C30.0991 41.9309 30.0566 41.9191 30.0223 41.8963C29.9914 41.874 29.9671 41.8455 29.9514 41.8133L29.5806 40.9487H27.7185L27.334 41.8133C27.3199 41.845 27.2964 41.8727 27.2659 41.8939C27.2312 41.9181 27.1877 41.9308 27.1432 41.9294H26.7124L28.3483 38.3499H28.9154L30.5731 41.9294ZM27.8739 40.6004H29.4116L28.7627 39.1435C28.7131 39.0339 28.6721 38.9215 28.64 38.8071L28.5773 38.9942C28.5582 39.0511 28.5364 39.1032 28.5173 39.1458L27.8739 40.6004Z"
                fill="#" />
            <path
                d="M32.9288 38.3665C32.9614 38.382 32.9894 38.4039 33.0106 38.4305L35.3962 41.1287C35.3962 41.0861 35.3962 41.0435 35.3962 41.0032C35.3962 40.9629 35.3962 40.9226 35.3962 40.8847V38.3499H35.8843V41.9294H35.6116C35.5729 41.9305 35.5345 41.9231 35.4998 41.9081C35.4662 41.8911 35.4365 41.8685 35.4126 41.8418L33.0297 39.1459C33.0323 39.1869 33.0323 39.2281 33.0297 39.2691C33.0297 39.3094 33.0297 39.3449 33.0297 39.3781V41.9294H32.5416V38.3499H32.8306C32.8644 38.3491 32.8979 38.3548 32.9288 38.3665Z"
                fill="#" />
            <path
                d="M39.9031 40.5058V41.9272H39.3578V40.5058L37.85 38.3501H38.3381C38.3801 38.3479 38.4217 38.3588 38.4553 38.3809C38.485 38.4039 38.5099 38.4311 38.5289 38.4614L39.4723 39.852C39.5105 39.9112 39.5432 39.9657 39.5705 40.0178C39.5977 40.07 39.6195 40.1197 39.6386 40.1695L39.7095 40.0155C39.736 39.9592 39.7669 39.9045 39.8022 39.852L40.7319 38.452C40.7515 38.424 40.7753 38.3985 40.8028 38.3761C40.8352 38.3516 40.8772 38.3389 40.9201 38.3406H41.4136L39.9031 40.5058Z"
                fill="#" />
            <path
                d="M17.7314 32.3431C17.9686 32.3692 18.2086 32.3905 18.4512 32.4094C22.1301 30.9796 25.2422 28.6393 27.3987 25.6812C29.5552 22.723 30.6603 19.2782 30.5759 15.7774L26.5216 12.2548C27.346 15.9821 26.9604 19.8352 25.408 23.3829C23.8555 26.9306 21.1976 30.0331 17.7314 32.3431Z"
                fill="#" />
            <path
                d="M16.2837 32.1793L16.3928 32.1982C20.0966 29.8964 22.9205 26.682 24.4993 22.9708C26.078 19.2597 26.3389 15.2223 25.2483 11.3809L19.4737 6.36371C21.8094 10.4877 22.7495 15.1031 22.1848 19.6731C21.6201 24.2432 19.5737 28.58 16.2837 32.1793Z"
                fill="#" />
            <path
                d="M35.8679 19.9136C34.8868 23.7602 32.5041 27.2293 29.0735 29.8059C28.0716 30.5626 26.9909 31.2366 25.8454 31.8194C28.6389 31.1061 31.2065 29.8448 33.3502 28.133C35.494 26.4212 37.1566 24.3044 38.21 21.9461L35.8679 19.9136Z"
                fill="#" />
            <path
                d="M34.9491 19.3472L31.6146 16.45C31.5509 19.7531 30.4701 22.9811 28.4846 25.7985C26.4991 28.6158 23.6814 30.9198 20.3243 32.4708H20.3406C21.0888 32.4706 21.8362 32.4318 22.5791 32.3547C25.7165 31.2421 28.488 29.472 30.6465 27.2023C32.8049 24.9326 34.2831 22.234 34.9491 19.3472Z"
                fill="#" />
            <path
                d="M16.7663 4.24794L12.7883 0.786987C9.23222 1.98094 6.1738 4.07987 4.01337 6.80906C1.85294 9.53825 0.69115 12.7706 0.680054 16.0829H0.680054C0.693382 19.743 2.11126 23.2947 4.70929 26.1758C7.30731 29.057 10.9371 31.103 15.0241 31.9901C18.6725 28.128 20.8086 23.3558 21.1219 18.3668C21.4352 13.3778 19.9094 8.43198 16.7663 4.24794Z"
                fill="#" />
            <path
                d="M44.1401 18.8144C44.1257 14.4719 42.1339 10.3108 38.5997 7.24022C35.0656 4.16961 30.2764 2.43902 25.2784 2.42652C22.9688 2.42444 20.6789 2.79473 18.5249 3.51857L42.8805 24.6797C43.7144 22.8091 44.1415 20.8203 44.1401 18.8144Z"
                fill="#" />
        </symbol>

        <symbol id="cliente4" width="170" height="100" viewBox="-20 -15 100 100">
            <path
                d="M13.1462 13.1899H13.1433C10.7453 13.1899 8.80127 14.9175 8.80127 17.0485V17.0511C8.80127 19.1822 10.7453 20.9098 13.1433 20.9098H13.1462C15.5442 20.9098 17.4882 19.1822 17.4882 17.0511V17.0485C17.4882 14.9175 15.5442 13.1899 13.1462 13.1899Z"
                fill="#" />
            <path
                d="M45.195 11.9563C45.1882 8.99633 43.8623 6.15926 41.5074 4.06599C39.1525 1.97271 35.9604 0.793708 32.6297 0.786987V0.786987C29.298 0.792365 26.1045 1.97078 23.7484 4.0642C21.3922 6.15762 20.0655 8.99545 20.0587 11.9563V28.2792C20.0587 28.2792 45.1922 25.7914 45.195 11.9589V11.9563Z"
                fill="#" />
            <path
                d="M0 33.6365C0.00604098 35.6961 0.929149 37.6698 2.56761 39.1264C4.20607 40.583 6.42668 41.404 8.74418 41.4101C11.0612 41.4041 13.2814 40.5834 14.9197 39.1273C16.5581 37.6713 17.4816 35.6982 17.4884 33.639V22.2814C17.4884 22.2814 0 24.0136 0 33.6365ZM8.74418 35.6715C8.2913 35.6715 7.84859 35.5521 7.47203 35.3285C7.09548 35.1049 6.80199 34.7871 6.62868 34.4153C6.45537 34.0434 6.41002 33.6342 6.49838 33.2395C6.58673 32.8448 6.80481 32.4822 7.12505 32.1976C7.44528 31.913 7.85328 31.7192 8.29746 31.6406C8.74164 31.5621 9.20204 31.6024 9.62045 31.7564C10.0389 31.9105 10.3965 32.1713 10.6481 32.5059C10.8997 32.8406 11.034 33.234 11.034 33.6365C11.0351 33.9044 10.9767 34.1698 10.8622 34.4176C10.7476 34.6654 10.5791 34.8906 10.3664 35.0804C10.1536 35.2702 9.90081 35.4207 9.62244 35.5235C9.34406 35.6262 9.04561 35.6791 8.74418 35.6791V35.6715Z"
                fill="#" />
            <path
                d="M24.7302 32.0283V36.2939H23.8513V32.0283H24.7302ZM26.4294 33.8506V34.5361H24.4899V33.8506H26.4294ZM26.6345 32.0283V32.7168H24.4899V32.0283H26.6345ZM30.6481 34.0615V34.2637C30.6481 34.5879 30.6042 34.8789 30.5163 35.1367C30.4284 35.3945 30.3044 35.6143 30.1442 35.7959C29.9841 35.9756 29.7927 36.1133 29.57 36.209C29.3493 36.3047 29.1042 36.3525 28.8347 36.3525C28.5671 36.3525 28.322 36.3047 28.0993 36.209C27.8786 36.1133 27.6872 35.9756 27.5251 35.7959C27.363 35.6143 27.237 35.3945 27.1472 35.1367C27.0593 34.8789 27.0153 34.5879 27.0153 34.2637V34.0615C27.0153 33.7354 27.0593 33.4443 27.1472 33.1885C27.235 32.9307 27.3591 32.7109 27.5192 32.5293C27.6813 32.3477 27.8727 32.209 28.0934 32.1133C28.3161 32.0176 28.5612 31.9697 28.8288 31.9697C29.0983 31.9697 29.3434 32.0176 29.5641 32.1133C29.7868 32.209 29.9782 32.3477 30.1384 32.5293C30.3005 32.7109 30.4255 32.9307 30.5134 33.1885C30.6032 33.4443 30.6481 33.7354 30.6481 34.0615ZM29.7604 34.2637V34.0557C29.7604 33.8291 29.7399 33.6299 29.6989 33.458C29.6579 33.2861 29.5974 33.1416 29.5173 33.0244C29.4372 32.9072 29.3395 32.8193 29.2243 32.7607C29.1091 32.7002 28.9772 32.6699 28.8288 32.6699C28.6804 32.6699 28.5485 32.7002 28.4333 32.7607C28.32 32.8193 28.2233 32.9072 28.1432 33.0244C28.0651 33.1416 28.0056 33.2861 27.9645 33.458C27.9235 33.6299 27.903 33.8291 27.903 34.0557V34.2637C27.903 34.4883 27.9235 34.6875 27.9645 34.8613C28.0056 35.0332 28.0661 35.1787 28.1462 35.2979C28.2263 35.415 28.3239 35.5039 28.4391 35.5645C28.5544 35.625 28.6862 35.6553 28.8347 35.6553C28.9831 35.6553 29.1149 35.625 29.2302 35.5645C29.3454 35.5039 29.4421 35.415 29.5202 35.2979C29.5983 35.1787 29.6579 35.0332 29.6989 34.8613C29.7399 34.6875 29.7604 34.4883 29.7604 34.2637ZM33.5016 35.1777C33.5016 35.1016 33.4899 35.0332 33.4665 34.9727C33.445 34.9102 33.404 34.8535 33.3434 34.8027C33.2829 34.75 33.1979 34.6982 33.0886 34.6475C32.9792 34.5967 32.8376 34.5439 32.6638 34.4893C32.4704 34.4268 32.2868 34.3564 32.113 34.2783C31.9411 34.2002 31.7888 34.1094 31.6559 34.0059C31.5251 33.9004 31.4216 33.7783 31.3454 33.6396C31.2712 33.501 31.2341 33.3398 31.2341 33.1562C31.2341 32.9785 31.2731 32.8174 31.3513 32.6729C31.4294 32.5264 31.5388 32.4014 31.6794 32.2979C31.82 32.1924 31.986 32.1113 32.1774 32.0547C32.3708 31.998 32.5827 31.9697 32.8132 31.9697C33.1276 31.9697 33.402 32.0264 33.6364 32.1396C33.8708 32.2529 34.0524 32.4082 34.1813 32.6055C34.3122 32.8027 34.3776 33.0283 34.3776 33.2822H33.5046C33.5046 33.1572 33.4782 33.0479 33.4255 32.9541C33.3747 32.8584 33.2966 32.7832 33.1911 32.7285C33.0876 32.6738 32.9567 32.6465 32.7985 32.6465C32.6462 32.6465 32.5192 32.6699 32.4177 32.7168C32.3161 32.7617 32.2399 32.8232 32.1891 32.9014C32.1384 32.9775 32.113 33.0635 32.113 33.1592C32.113 33.2314 32.1306 33.2969 32.1657 33.3555C32.2028 33.4141 32.2575 33.4688 32.3298 33.5195C32.402 33.5703 32.4909 33.6182 32.5964 33.6631C32.7018 33.708 32.8239 33.752 32.9626 33.7949C33.195 33.8652 33.3991 33.9443 33.5749 34.0322C33.7526 34.1201 33.9011 34.2188 34.0202 34.3281C34.1393 34.4375 34.2292 34.5615 34.2897 34.7002C34.3503 34.8389 34.3806 34.9961 34.3806 35.1719C34.3806 35.3574 34.3444 35.5234 34.2722 35.6699C34.1999 35.8164 34.0954 35.9404 33.9587 36.042C33.822 36.1436 33.6589 36.2207 33.4694 36.2734C33.28 36.3262 33.0681 36.3525 32.8337 36.3525C32.6227 36.3525 32.4147 36.3252 32.2097 36.2705C32.0046 36.2139 31.8181 36.1289 31.6501 36.0156C31.4841 35.9023 31.3513 35.7578 31.2516 35.582C31.152 35.4062 31.1022 35.1982 31.1022 34.958H31.9841C31.9841 35.0908 32.0046 35.2031 32.0456 35.2949C32.0866 35.3867 32.1442 35.4609 32.2184 35.5176C32.2946 35.5742 32.3845 35.6152 32.488 35.6406C32.5934 35.666 32.7087 35.6787 32.8337 35.6787C32.986 35.6787 33.111 35.6572 33.2087 35.6143C33.3083 35.5713 33.3815 35.5117 33.4284 35.4355C33.4772 35.3594 33.5016 35.2734 33.5016 35.1777ZM36.8854 32.0283V36.2939H36.0095V32.0283H36.8854ZM38.1979 32.0283V32.7168H34.7175V32.0283H38.1979ZM41.5612 35.6084V36.2939H39.2907V35.6084H41.5612ZM39.5778 32.0283V36.2939H38.6989V32.0283H39.5778ZM41.2653 33.7656V34.4336H39.2907V33.7656H41.2653ZM41.5583 32.0283V32.7168H39.2907V32.0283H41.5583ZM42.0739 32.0283H43.6647C43.9909 32.0283 44.2712 32.0771 44.5056 32.1748C44.7419 32.2725 44.9235 32.417 45.0505 32.6084C45.1774 32.7998 45.2409 33.0352 45.2409 33.3145C45.2409 33.543 45.2018 33.7393 45.1237 33.9033C45.0475 34.0654 44.9391 34.2012 44.7985 34.3105C44.6599 34.418 44.4968 34.5039 44.3093 34.5684L44.0309 34.7148H42.6481L42.6423 34.0293H43.6706C43.8249 34.0293 43.9528 34.002 44.0544 33.9473C44.1559 33.8926 44.2321 33.8164 44.2829 33.7188C44.3356 33.6211 44.362 33.5078 44.362 33.3789C44.362 33.2422 44.3366 33.124 44.2858 33.0244C44.235 32.9248 44.1579 32.8486 44.0544 32.7959C43.9509 32.7432 43.821 32.7168 43.6647 32.7168H42.9528V36.2939H42.0739V32.0283ZM44.4587 36.2939L43.486 34.3926L44.4147 34.3867L45.3991 36.2529V36.2939H44.4587ZM49.0729 34.7734H47.986V34.0879H49.0729C49.2409 34.0879 49.3776 34.0605 49.4831 34.0059C49.5886 33.9492 49.6657 33.8711 49.7145 33.7715C49.7634 33.6719 49.7878 33.5596 49.7878 33.4346C49.7878 33.3076 49.7634 33.1895 49.7145 33.0801C49.6657 32.9707 49.5886 32.8828 49.4831 32.8164C49.3776 32.75 49.2409 32.7168 49.0729 32.7168H48.2907V36.2939H47.4118V32.0283H49.0729C49.4069 32.0283 49.6931 32.0889 49.9313 32.21C50.1716 32.3291 50.3552 32.4941 50.4821 32.7051C50.6091 32.916 50.6725 33.1572 50.6725 33.4287C50.6725 33.7041 50.6091 33.9424 50.4821 34.1436C50.3552 34.3447 50.1716 34.5 49.9313 34.6094C49.6931 34.7188 49.4069 34.7734 49.0729 34.7734ZM54.1413 35.6084V36.2939H51.8708V35.6084H54.1413ZM52.1579 32.0283V36.2939H51.279V32.0283H52.1579ZM53.8454 33.7656V34.4336H51.8708V33.7656H53.8454ZM54.1384 32.0283V32.7168H51.8708V32.0283H54.1384ZM56.6198 32.0283V36.2939H55.7438V32.0283H56.6198ZM57.9323 32.0283V32.7168H54.4518V32.0283H57.9323ZM61.2956 35.6084V36.2939H59.0251V35.6084H61.2956ZM59.3122 32.0283V36.2939H58.4333V32.0283H59.3122ZM60.9997 33.7656V34.4336H59.0251V33.7656H60.9997ZM61.2927 32.0283V32.7168H59.0251V32.0283H61.2927ZM61.8083 32.0283H63.3991C63.7253 32.0283 64.0056 32.0771 64.2399 32.1748C64.4763 32.2725 64.6579 32.417 64.7849 32.6084C64.9118 32.7998 64.9753 33.0352 64.9753 33.3145C64.9753 33.543 64.9362 33.7393 64.8581 33.9033C64.7819 34.0654 64.6735 34.2012 64.5329 34.3105C64.3942 34.418 64.2311 34.5039 64.0436 34.5684L63.7653 34.7148H62.3825L62.3766 34.0293H63.405C63.5593 34.0293 63.6872 34.002 63.7888 33.9473C63.8903 33.8926 63.9665 33.8164 64.0173 33.7188C64.07 33.6211 64.0964 33.5078 64.0964 33.3789C64.0964 33.2422 64.071 33.124 64.0202 33.0244C63.9694 32.9248 63.8923 32.8486 63.7888 32.7959C63.6852 32.7432 63.5554 32.7168 63.3991 32.7168H62.6872V36.2939H61.8083V32.0283ZM64.1931 36.2939L63.2204 34.3926L64.1491 34.3867L65.1335 36.2529V36.2939H64.1931ZM67.8727 35.1777C67.8727 35.1016 67.861 35.0332 67.8376 34.9727C67.8161 34.9102 67.7751 34.8535 67.7145 34.8027C67.654 34.75 67.569 34.6982 67.4597 34.6475C67.3503 34.5967 67.2087 34.5439 67.0349 34.4893C66.8415 34.4268 66.6579 34.3564 66.4841 34.2783C66.3122 34.2002 66.1599 34.1094 66.027 34.0059C65.8962 33.9004 65.7927 33.7783 65.7165 33.6396C65.6423 33.501 65.6052 33.3398 65.6052 33.1562C65.6052 32.9785 65.6442 32.8174 65.7224 32.6729C65.8005 32.5264 65.9099 32.4014 66.0505 32.2979C66.1911 32.1924 66.3571 32.1113 66.5485 32.0547C66.7419 31.998 66.9538 31.9697 67.1843 31.9697C67.4987 31.9697 67.7731 32.0264 68.0075 32.1396C68.2419 32.2529 68.4235 32.4082 68.5524 32.6055C68.6833 32.8027 68.7487 33.0283 68.7487 33.2822H67.8757C67.8757 33.1572 67.8493 33.0479 67.7966 32.9541C67.7458 32.8584 67.6677 32.7832 67.5622 32.7285C67.4587 32.6738 67.3278 32.6465 67.1696 32.6465C67.0173 32.6465 66.8903 32.6699 66.7888 32.7168C66.6872 32.7617 66.611 32.8232 66.5602 32.9014C66.5095 32.9775 66.4841 33.0635 66.4841 33.1592C66.4841 33.2314 66.5016 33.2969 66.5368 33.3555C66.5739 33.4141 66.6286 33.4688 66.7009 33.5195C66.7731 33.5703 66.862 33.6182 66.9675 33.6631C67.0729 33.708 67.195 33.752 67.3337 33.7949C67.5661 33.8652 67.7702 33.9443 67.946 34.0322C68.1237 34.1201 68.2722 34.2188 68.3913 34.3281C68.5104 34.4375 68.6003 34.5615 68.6608 34.7002C68.7214 34.8389 68.7516 34.9961 68.7516 35.1719C68.7516 35.3574 68.7155 35.5234 68.6432 35.6699C68.571 35.8164 68.4665 35.9404 68.3298 36.042C68.1931 36.1436 68.03 36.2207 67.8405 36.2734C67.6511 36.3262 67.4391 36.3525 67.2048 36.3525C66.9938 36.3525 66.7858 36.3252 66.5807 36.2705C66.3757 36.2139 66.1891 36.1289 66.0212 36.0156C65.8552 35.9023 65.7224 35.7578 65.6227 35.582C65.5231 35.4062 65.4733 35.1982 65.4733 34.958H66.3552C66.3552 35.0908 66.3757 35.2031 66.4167 35.2949C66.4577 35.3867 66.5153 35.4609 66.5895 35.5176C66.6657 35.5742 66.7556 35.6152 66.8591 35.6406C66.9645 35.666 67.0798 35.6787 67.2048 35.6787C67.3571 35.6787 67.4821 35.6572 67.5798 35.6143C67.6794 35.5713 67.7526 35.5117 67.7995 35.4355C67.8483 35.3594 67.8727 35.2734 67.8727 35.1777Z"
                fill="#" />
        </symbol>

        <symbol id="cliente5" width="170" height="100" viewBox="-15 -15 100 100">
            <path
                d="M4.7569 38.8221C5.00058 39.0983 5.13038 39.4441 5.12358 39.7991C5.13601 40.0307 5.0914 40.2618 4.99304 40.4754C4.89469 40.689 4.74511 40.8797 4.55539 41.0332C4.08201 41.3605 3.49555 41.5205 2.90369 41.4838H0V35.2924H2.84423C3.40566 35.2582 3.96263 35.4036 4.41995 35.7037C4.60363 35.8445 4.74908 36.0224 4.84482 36.2235C4.94055 36.4245 4.98396 36.6431 4.97162 36.8622C4.98831 37.2037 4.87115 37.5395 4.64128 37.8089C4.42059 38.0549 4.1156 38.2254 3.77579 38.2928C4.16101 38.3572 4.50873 38.5448 4.7569 38.8221ZM1.35109 37.8875H2.56674C2.84303 37.9062 3.11743 37.8332 3.33974 37.6819C3.43101 37.6061 3.50203 37.5122 3.54728 37.4073C3.59254 37.3024 3.61082 37.1893 3.60071 37.0769C3.60929 36.9649 3.59063 36.8526 3.54607 36.748C3.50151 36.6434 3.43217 36.5491 3.34304 36.472C3.11408 36.3164 2.83115 36.2422 2.54692 36.2633H1.35109V37.8875ZM3.45866 40.2619C3.55623 40.1843 3.63292 40.0872 3.68277 39.9781C3.73262 39.869 3.75428 39.7508 3.74606 39.6328C3.7535 39.5133 3.73085 39.3939 3.67988 39.2838C3.6289 39.1737 3.55095 39.0757 3.45205 38.9976C3.21421 38.8361 2.9217 38.7569 2.6262 38.7738H1.35109V40.4766H2.64272C2.93345 40.492 3.22122 40.4163 3.45866 40.2619Z"
                fill="#" />
            <path
                d="M10.5709 41.4839L8.98857 39.0641H8.39396V41.4839H7.03296V35.2924H9.60961C10.2591 35.2509 10.9012 35.4393 11.4034 35.8187C11.7635 36.1547 11.9808 36.5975 12.0159 37.0672C12.051 37.537 11.9018 38.0027 11.595 38.3806C11.2771 38.714 10.8428 38.9364 10.3661 39.0097L12.0508 41.4839H10.5709ZM8.39396 38.2203H9.50721C10.2802 38.2203 10.6667 37.9077 10.6667 37.2826C10.6746 37.155 10.6534 37.0272 10.6045 36.9074C10.5556 36.7877 10.48 36.6785 10.3826 36.5869C10.1383 36.4009 9.82374 36.3107 9.50721 36.3359H8.38075L8.39396 38.2203Z"
                fill="#" />
            <path
                d="M18.0102 40.2376H15.2981L14.8191 41.4837H13.392L15.8828 35.3618H17.4255L19.9063 41.4837H18.4793L18.0102 40.2376ZM17.6468 39.2999L16.6558 36.6866L15.6648 39.2999H17.6468Z"
                fill="#" />
            <path
                d="M27.3224 41.4838H25.9713L22.9421 37.2735V41.4838H21.5943V35.2924H22.9421L25.9713 39.5269V35.2924H27.3224V41.4838Z"
                fill="#" />
            <path
                d="M35.0326 40.0018C34.7532 40.4692 34.3276 40.8495 33.8103 41.0937C33.2222 41.3657 32.5695 41.4998 31.9109 41.4839H29.506V35.2924H31.9109C32.5684 35.2767 33.2202 35.4075 33.8103 35.6735C34.3275 35.9122 34.7536 36.2886 35.0326 36.7533C35.3107 37.2569 35.4556 37.8133 35.4556 38.3776C35.4556 38.9418 35.3107 39.4982 35.0326 40.0018ZM33.4866 39.8536C33.8722 39.4423 34.0842 38.9181 34.0842 38.376C34.0842 37.834 33.8722 37.3098 33.4866 36.8985C33.0205 36.5259 32.4127 36.3368 31.7952 36.3722H30.8571V40.3799H31.7952C32.4127 40.4153 33.0205 40.2261 33.4866 39.8536Z"
                fill="#" />
            <path
                d="M18.8558 0.853638C18.8558 0.853638 36.2945 6.88177 35.9245 15.6049V30.3591C35.9245 30.3591 18.4991 24.328 18.8624 15.6049L18.8558 0.853638Z"
                fill="#" />
            <path
                d="M51.4603 26.9049C54.7538 24.8296 58.5633 23.5442 62.5399 23.1664V18.5478C57.9579 20.1648 54.0709 23.0967 51.4603 26.9049Z"
                fill="#" />
            <path
                d="M49.4816 28.2964C52.1773 23.3265 56.8505 19.4914 62.54 17.58V4.27155C62.54 4.27155 37.705 12.8585 38.2303 25.2808V46.287C38.2303 46.287 39.3369 45.9029 41.0778 45.183C41.0778 44.5115 41.0778 43.834 41.1571 43.1535C41.6711 37.3865 44.6654 32.0424 49.4816 28.2964Z"
                fill="#" />
            <path
                d="M47.1197 36.1C47.2502 34.6432 47.5413 33.2021 47.9885 31.799C44.9896 35.034 43.1734 39.0484 42.7956 43.2775C42.7592 43.6768 42.7394 44.076 42.7295 44.4874C44.14 43.8673 45.7818 43.093 47.5062 42.1826C47.0662 40.1817 46.936 38.1341 47.1197 36.1Z"
                fill="#" />
            <path
                d="M48.1075 36.1756C47.9421 38.0159 48.0454 39.8682 48.4147 41.6835C55.1999 37.9662 62.8241 32.2224 62.5301 25.2808V24.6759C57.6824 25.1726 53.1468 27.1129 49.6204 30.1989C48.7948 32.1113 48.2849 34.1257 48.1075 36.1756Z"
                fill="#" />
        </symbol>

        <symbol id="cliente6" width="170" height="100" viewBox="0 -15 100 100">
            <path
                d="M47.425 21.4952C46.9819 20.9054 46.7699 20.2083 46.8203 19.5066V16.6234C46.8203 15.7396 47.0207 15.0679 47.4216 14.6084C47.8224 14.1489 48.511 13.9201 49.4871 13.9221C50.4044 13.9221 51.0555 14.1176 51.4405 14.5087C51.8605 15.0077 52.0648 15.6178 52.018 16.2333V16.9108H50.3772V16.2245C50.383 15.9999 50.3671 15.7752 50.3296 15.5528C50.306 15.4008 50.2234 15.2602 50.0952 15.154C49.9267 15.0394 49.7145 14.9839 49.5007 14.9985C49.2759 14.984 49.0529 15.0426 48.8756 15.1628C48.7327 15.2804 48.6374 15.4347 48.6038 15.6027C48.5567 15.838 48.5351 16.0766 48.5393 16.3154V19.8146C48.5134 20.1521 48.5858 20.4899 48.7499 20.7971C48.8315 20.9011 48.9448 20.9835 49.0774 21.0353C49.2099 21.087 49.3564 21.1061 49.5007 21.0904C49.7109 21.1054 49.9195 21.0485 50.0816 20.9321C50.2153 20.8175 50.3013 20.668 50.3262 20.5068C50.3645 20.2746 50.3816 20.0402 50.3772 19.8058V19.096H52.018V19.7442C52.0641 20.3857 51.8648 21.0226 51.4507 21.5568C51.0736 21.985 50.4315 22.1991 49.4871 22.1991C48.5427 22.1991 47.8292 21.9704 47.425 21.4952Z"
                fill="#" />
            <path
                d="M54.2569 21.5245C53.8424 21.0758 53.6352 20.4217 53.6352 19.5565V16.5237C53.6352 15.6672 53.8424 15.019 54.2569 14.5791C54.6713 14.1391 55.3644 13.9201 56.3359 13.9221C57.3007 13.9221 57.9904 14.1411 58.4048 14.5791C58.8193 15.019 59.0299 15.6672 59.0299 16.5237V19.5565C59.0299 20.4129 58.8193 21.0699 58.398 21.5216C57.9768 21.9733 57.2906 22.1991 56.3359 22.1991C55.3813 22.1991 54.6747 21.9704 54.2569 21.5245ZM57.1003 20.7971C57.2487 20.516 57.3163 20.2081 57.2974 19.8996V16.1864C57.3164 15.8839 57.2499 15.5819 57.1037 15.3065C57.0205 15.2003 56.9043 15.1166 56.7686 15.0647C56.6328 15.0128 56.4829 14.995 56.3359 15.0132C56.1885 14.9954 56.0383 15.0135 55.9021 15.0653C55.7659 15.1171 55.6491 15.2006 55.5648 15.3065C55.4154 15.5811 55.3477 15.8835 55.3678 16.1864V19.9172C55.3471 20.2258 55.4148 20.5341 55.5648 20.8147C55.6604 20.9094 55.7785 20.9852 55.9109 21.0371C56.0433 21.0891 56.1871 21.116 56.3326 21.116C56.478 21.116 56.6218 21.0891 56.7542 21.0371C56.8866 20.9852 57.0047 20.9094 57.1003 20.8147V20.7971Z"
                fill="#" />
            <path
                d="M61.0035 14.0106H62.7701L64.0984 19.6062L65.4573 14.0106H67.1763L67.3496 22.0873H66.079L65.9431 16.474L64.6318 22.0873H63.6126L62.2537 16.4535L62.128 22.0873H60.8439L61.0035 14.0106Z"
                fill="#" />
            <path
                d="M69.3302 14.0106H72.0819C73.6673 14.0106 74.4599 14.775 74.4599 16.3039C74.4599 17.7684 73.6254 18.4996 71.9562 18.4976H71.0186V22.0873H69.32L69.3302 14.0106ZM71.6811 17.4624C71.8489 17.4808 72.0193 17.4675 72.1806 17.4234C72.3419 17.3794 72.4902 17.3056 72.6153 17.2072C72.8101 16.9344 72.896 16.6141 72.8599 16.2952C72.8688 16.0488 72.8414 15.8024 72.7783 15.562C72.7541 15.4817 72.7116 15.4063 72.6533 15.3404C72.5949 15.2744 72.522 15.2191 72.4386 15.1778C72.2028 15.0801 71.9422 15.0357 71.6811 15.0487H71.022V17.4624H71.6811Z"
                fill="#" />
            <path
                d="M76.9094 14.0106H78.7337L80.6055 22.0873H79.0225L78.6522 20.225H77.0249L76.6444 22.0873H75.0376L76.9094 14.0106ZM78.4687 19.2895L77.8334 15.8992L77.1982 19.2895H78.4687Z"
                fill="#" />
            <path
                d="M82.1173 14.0106H83.3063L85.5825 18.6179V14.0106H86.9923V22.0873H85.861L83.5713 17.2776V22.0873H82.1139L82.1173 14.0106Z"
                fill="#" />
            <path
                d="M90.2945 19.0077L88.4022 14.0219H89.9955L91.1506 17.2245L92.2343 14.0219H93.7936L91.9251 19.0077V22.0872H90.2945V19.0077Z"
                fill="#" />
            <path
                d="M50.0477 25.6185V26.0409H48.6617V29.3228H48.0807V26.0409H46.6879V25.6185H50.0477Z"
                fill="#" />
            <path
                d="M54.3927 29.3231H53.9442C53.8987 29.3256 53.8538 29.313 53.8185 29.2879C53.7846 29.2664 53.7587 29.2369 53.7438 29.2029L53.3429 28.323H51.4201L51.0192 29.2029C51.0078 29.2397 50.9869 29.2738 50.958 29.3026C50.9225 29.3271 50.8778 29.3397 50.8324 29.3378H50.3839L52.0825 25.6337H52.6737L54.3927 29.3231ZM51.5797 27.9476H53.1833L52.5038 26.4402C52.4537 26.3262 52.4117 26.2096 52.3781 26.0912C52.3543 26.1616 52.3339 26.229 52.3136 26.2877L52.2524 26.4431L51.5797 27.9476Z"
                fill="#" />
            <path
                d="M57.3211 28.9593C57.4275 28.9641 57.5341 28.9641 57.6404 28.9593C57.7323 28.9511 57.8232 28.9364 57.9122 28.9153C57.9954 28.8977 58.0772 28.8751 58.1568 28.8478C58.2316 28.8214 58.3063 28.7891 58.3844 28.7569V27.9239H57.705C57.6882 27.9247 57.6714 27.9225 57.6556 27.9174C57.6398 27.9124 57.6254 27.9046 57.6133 27.8945C57.6021 27.8862 57.5933 27.8758 57.5874 27.8641C57.5815 27.8524 57.5787 27.8398 57.5793 27.8271V27.5425H58.8974V28.9622C58.7898 29.0287 58.6762 29.0875 58.5577 29.1382C58.4366 29.1898 58.3104 29.232 58.1806 29.2643C58.0417 29.2996 57.8996 29.3251 57.7559 29.3406C57.5912 29.3564 57.4257 29.3642 57.26 29.3641C56.967 29.3662 56.6763 29.3194 56.4038 29.2262C56.1495 29.1379 55.9184 29.0062 55.7244 28.839C55.5353 28.6701 55.3864 28.4708 55.2862 28.2524C55.1791 28.0068 55.1261 27.7462 55.1299 27.4839C55.1263 27.2199 55.1781 26.9576 55.2828 26.7095C55.3805 26.49 55.5297 26.2903 55.721 26.1229C55.9149 25.9562 56.1461 25.8255 56.4005 25.7386C56.6914 25.6441 57.0001 25.5974 57.3109 25.6008C57.4691 25.6006 57.627 25.6114 57.7831 25.633C57.9212 25.6524 58.0567 25.6839 58.1874 25.7269C58.3062 25.7654 58.4201 25.8146 58.5271 25.8735C58.6312 25.9314 58.7301 25.9962 58.8227 26.0671L58.6596 26.2959C58.6468 26.3168 58.6278 26.3344 58.6045 26.3468C58.5812 26.3591 58.5545 26.3659 58.5271 26.3663C58.4895 26.3653 58.453 26.3551 58.4218 26.337C58.3708 26.3135 58.3165 26.2842 58.2553 26.249C58.1831 26.2099 58.1069 26.1765 58.0277 26.1493C57.9265 26.1142 57.8219 26.0867 57.7152 26.0671C57.5729 26.0445 57.4284 26.0337 57.2837 26.0349C57.0596 26.0327 56.8371 26.0676 56.6281 26.1375C56.439 26.203 56.2686 26.3031 56.1287 26.4309C55.9879 26.564 55.8803 26.7208 55.8127 26.8914C55.661 27.2926 55.661 27.725 55.8127 28.1262C55.8871 28.3005 56.0028 28.4593 56.1525 28.5926C56.2918 28.7197 56.4609 28.8197 56.6485 28.8859C56.8645 28.95 57.0934 28.9749 57.3211 28.9593Z"
                fill="#" />
            <path d="M62.7362 28.9005H64.5911V29.3228H62.1689V25.6185H62.7498L62.7362 28.9005Z"
                fill="#" />
            <path d="M66.5208 29.3228H65.9398V25.6185H66.5208V29.3228Z" fill="#" />
            <path
                d="M68.6814 25.6361C68.7159 25.6531 68.746 25.6761 68.7697 25.7036L71.253 28.4959C71.2497 28.452 71.2497 28.4079 71.253 28.3639C71.253 28.3229 71.253 28.2818 71.253 28.2437V25.6039H71.7592V29.3231H71.4671C71.4238 29.3261 71.3804 29.319 71.3414 29.3025C71.3061 29.2841 71.275 29.2602 71.2496 29.2321L68.7697 26.4428C68.7697 26.4867 68.7697 26.5278 68.7697 26.5689C68.7697 26.6099 68.7697 26.6481 68.7697 26.6833V29.3231H68.2839V25.6185H68.5863C68.6191 25.6186 68.6515 25.6246 68.6814 25.6361Z"
                fill="#" />
            <path
                d="M76.0364 25.6185V26.0262H73.9777V27.2493H75.6457V27.6423H73.9777V28.9064H76.0364V29.3141H73.3798V25.6185H76.0364Z"
                fill="#" />
            <path
                d="M15.1617 2.74242L40.9568 9.06573V31.2237L15.1617 24.9033V2.74242ZM13.5073 0.853638V25.9797L42.6079 33.1154V7.99229L13.5073 0.853638Z"
                fill="#" />
            <path d="M29.1039 44.7791L0 37.6375V12.514L29.1039 19.6528V44.7791Z" fill="#" />
            <path
                d="M13.9897 2.4579L39.4484 8.70191L28.6215 18.0518L3.1594 11.8049L13.9897 2.4579ZM13.5073 0.853638L0 12.5146L29.1039 19.6531L42.6078 7.99217L13.5073 0.853638Z"
                fill="#" />
            <path d="M30.7414 43.3657L42.6078 33.1185L30.7414 30.2062V43.3657Z" fill="#" />
        </symbol>

        <!-- FIGURAS UNDER TITLE -->

        <symbol id="antena" width="400" height="200" viewBox="-100 -25 400 200">
            <path
                d="M67.3163 48.3385L48.8468 29.7337L50.8966 19.6373C51.4256 19.8438 51.9879 19.9517 52.5556 19.9558H52.5696C55.1777 19.9866 57.3169 17.8974 57.3479 15.2893C57.3788 12.6812 55.2894 10.542 52.6813 10.5111C50.0732 10.4803 47.934 12.5695 47.9031 15.1776C47.8965 15.7357 47.9888 16.2905 48.176 16.8163L37.326 18.1405L19.6276 0.35C19.4105 0.128479 19.1141 0.00247917 18.804 0C18.4977 0.00160417 18.2044 0.123521 17.9873 0.3395L14.6786 3.6295C14.2232 4.08508 14.2232 4.82358 14.6786 5.27917L16.459 7.08517C9.56162 19.7681 11.8019 35.4741 21.9703 45.7228C22.0636 45.8121 22.1718 45.8843 22.29 45.9363C22.2165 46.3311 22.1781 46.7317 22.1756 47.1333V60.6667H8.17562C4.95562 60.6705 2.34608 63.28 2.34229 66.5V68.8333C2.34229 69.4776 2.86466 70 3.50895 70H57.1756C57.8199 70 58.3423 69.4776 58.3423 68.8333V66.5C58.3385 63.28 55.729 60.6705 52.509 60.6667H38.509V54.6688C40.7021 55.1288 42.9367 55.3633 45.1776 55.3688C50.5548 55.363 55.8464 54.0225 60.5776 51.4675L62.3673 53.2677C62.5844 53.4892 62.8808 53.6152 63.191 53.6177C63.4972 53.6161 63.7905 53.4941 64.0076 53.2782L67.3163 49.9882C67.7717 49.5326 67.7717 48.7941 67.3163 48.3385ZM50.9246 13.6348C51.8383 12.726 53.3157 12.7301 54.2244 13.6437C55.1332 14.5574 55.1291 16.0348 54.2155 16.9435C53.7781 17.3785 53.1864 17.6226 52.5695 17.6225H52.5625C51.2739 17.6158 50.2345 16.5658 50.2412 15.2771C50.2445 14.6602 50.4918 14.0699 50.9291 13.6348H50.9246ZM48.1783 21.301L46.8693 27.7445L44.298 25.158L48.1783 21.301ZM46.853 19.3282L42.653 23.5037L39.4038 20.237L46.853 19.3282ZM52.509 63C54.442 63 56.009 64.567 56.009 66.5V67.6667H4.67562V66.5C4.67562 64.567 6.2426 63 8.17562 63H52.509ZM36.1756 58.3333V60.6667H24.509V58.3333H36.1756ZM24.509 56V47.1333C24.509 44.303 27.1258 42 30.3423 42C33.5588 42 36.1756 44.303 36.1756 47.1333V56H24.509ZM38.509 52.29V47.1333C38.509 43.0162 34.8456 39.6667 30.3423 39.6667C27.4306 39.622 24.7079 41.1041 23.165 43.5738C14.2887 34.2249 12.2899 20.2875 18.1805 8.82073L58.872 49.7455C52.5886 52.9419 45.3857 53.8418 38.509 52.29ZM63.2038 50.7943L61.56 49.1412L18.7923 6.11567L17.1415 4.46133L18.7923 2.81633L36.15 20.272C36.1581 20.272 36.1628 20.2872 36.171 20.293L64.8593 49.1493L63.2038 50.7943Z"
                fill="#212121" />
            <path
                d="M30.3528 44.3333H30.3423C28.4093 44.3304 26.84 45.895 26.837 47.8281C26.8341 49.7611 28.3988 51.3304 30.3318 51.3333H30.3423C32.2753 51.3362 33.8446 49.7716 33.8475 47.8386C33.8505 45.9055 32.2858 44.3362 30.3528 44.3333ZM31.1695 48.6605C30.9498 48.8789 30.6522 49.0012 30.3423 49C29.698 48.9966 29.1784 48.4716 29.1817 47.8273C29.1834 47.5189 29.307 47.2237 29.5256 47.0062C29.7428 46.7902 30.036 46.6683 30.3423 46.6667C30.9866 46.67 31.5062 47.195 31.5028 47.8393C31.5012 48.1477 31.3776 48.4429 31.159 48.6605H31.1695Z"
                fill="#2196F3" />
        </symbol>

        <symbol id="astronauta" width="400" height="200" viewBox="-100 -25 400 200">
            <path
                d="M69.9433 9.89637C69.8056 9.47513 69.4416 9.16724 69.0018 9.10298L64.8228 8.49512L62.9526 4.70809C62.5606 3.91005 61.2527 3.91005 60.8608 4.70809L58.9906 8.49512L54.8114 9.10312C54.3716 9.16724 54.0076 9.47418 53.8687 9.89651C53.7323 10.3188 53.8453 10.7831 54.1639 11.0924L57.1891 14.0407L56.4752 18.2034C56.4005 18.6409 56.5802 19.0831 56.9384 19.3445C57.3012 19.6082 57.7748 19.6407 58.168 19.4331L61.9061 17.4672L65.6442 19.4331C65.8146 19.5229 66.0024 19.5672 66.1879 19.5672C66.4294 19.5672 66.671 19.4925 66.874 19.3443C67.2333 19.0831 67.413 18.6408 67.3372 18.2033L66.6233 14.0405L69.6485 11.0923C69.9654 10.7819 70.0798 10.3187 69.9433 9.89637ZM64.5556 12.7991C64.2815 13.0662 64.1555 13.4536 64.2208 13.8316L64.6385 16.2688L62.4499 15.1184C62.2795 15.0286 62.0929 14.9843 61.9061 14.9843C61.7195 14.9843 61.534 15.0286 61.3624 15.1184L59.1736 16.2688L59.5913 13.8316C59.6567 13.4536 59.5306 13.0675 59.2565 12.7991L57.4843 11.0724L59.932 10.7166C60.3124 10.6617 60.6402 10.4226 60.8106 10.0783L61.9049 7.86169L62.9992 10.0783C63.1696 10.4225 63.4974 10.6617 63.8778 10.7166L66.3255 11.0724L64.5556 12.7991Z"
                fill="#2196F3" />
            <path d="M57.167 44.8923H54.8336V47.2257H57.167V44.8923Z" fill="#2196F3" />
            <path d="M57.167 49.5591H54.8336V51.8925H57.167V49.5591Z" fill="#2196F3" />
            <path d="M59.5004 47.2257H57.167V49.5591H59.5004V47.2257Z" fill="#2196F3" />
            <path d="M54.8337 47.2257H52.5003V49.5591H54.8337V47.2257Z" fill="#2196F3" />
            <path d="M49.0002 57.7259H46.6668V60.0593H49.0002V57.7259Z" fill="#2196F3" />
            <path d="M49.0002 62.3926H46.6668V64.726H49.0002V62.3926Z" fill="#2196F3" />
            <path d="M51.3337 60.0593H49.0002V62.3927H51.3337V60.0593Z" fill="#2196F3" />
            <path d="M46.6668 60.0593H44.3334V62.3927H46.6668V60.0593Z" fill="#2196F3" />
            <path d="M35 53.0592H32.6666V55.3926H35V53.0592Z" fill="#2196F3" />
            <path d="M35 57.7259H32.6666V60.0593H35V57.7259Z" fill="#2196F3" />
            <path d="M37.3334 55.3925H35V57.7259H37.3334V55.3925Z" fill="#2196F3" />
            <path d="M32.6666 55.3925H30.3332V57.7259H32.6666V55.3925Z" fill="#2196F3" />
            <path d="M12.833 13.3918H10.4996V15.7252H12.833V13.3918Z" fill="#2196F3" />
            <path d="M12.833 18.0587H10.4996V20.3921H12.833V18.0587Z" fill="#2196F3" />
            <path d="M15.1663 15.7252H12.8329V18.0586H15.1663V15.7252Z" fill="#2196F3" />
            <path d="M10.4996 15.7252H8.1662V18.0586H10.4996V15.7252Z" fill="#2196F3" />
            <path
                d="M54.0635 30.9738C53.4347 30.1256 52.5119 29.5797 51.4642 29.4326C50.4118 29.2833 49.3734 29.5597 48.5334 30.2026L45.7952 32.3014L45.794 32.3026L41.6428 35.4025L38.6724 34.2194C43.9691 31.8429 47.6711 26.545 47.6711 20.3942C47.6711 12.0314 40.8401 5.22736 32.4436 5.22736C24.047 5.22736 17.2161 12.0314 17.2161 20.3942C17.2161 23.4253 18.1226 26.2439 19.6662 28.6158L13.6204 28.5633C13.6168 28.5633 13.6134 28.5633 13.6099 28.5633C13.5911 28.5633 13.5761 28.5726 13.5586 28.5738C13.4431 28.5785 13.3298 28.6018 13.2191 28.6415C13.1911 28.652 13.162 28.6579 13.1352 28.6706C13.1212 28.6765 13.1071 28.6776 13.0932 28.6846L6.02075 32.1764C6.01952 32.1764 6.01843 32.1764 6.01843 32.1775L1.8766 34.1693C1.83107 34.1891 1.78445 34.2159 1.73892 34.2462C0.0880191 35.3452 -0.474314 37.5036 0.429958 39.2676C0.911763 40.2056 1.73195 40.8963 2.73999 41.2124C3.12856 41.3337 3.52518 41.3933 3.91949 41.3933C4.55305 41.3933 5.18074 41.2381 5.75578 40.9313L8.79154 39.3167L13.7441 36.7593L16.7122 36.7418L4.80844 48.5884C4.80735 48.5896 4.80612 48.5896 4.80489 48.5907L1.87647 51.5074C1.18466 52.1958 0.8043 53.1092 0.8043 54.0835C0.8043 55.0565 1.18466 55.9723 1.87647 56.6619C2.587 57.3689 3.52149 57.7235 4.45598 57.7235C5.3917 57.7235 6.32495 57.3689 7.03782 56.6619L9.91251 53.7988L13.7206 50.9556L15.6912 52.9179L11.8375 56.7551C11.8364 56.7564 11.8352 56.7564 11.834 56.7575L8.90556 59.6741C8.21375 60.3625 7.8334 61.2759 7.8334 62.2502C7.8334 63.2233 8.21375 64.139 8.90556 64.8286C9.6161 65.5356 10.5518 65.8903 11.4863 65.8903C12.4208 65.8903 13.3565 65.5356 14.0681 64.8286L16.9977 61.912L21.6842 57.2453C21.6854 57.244 21.6854 57.2429 21.6865 57.2417L23.8951 55.0542L23.8869 55.046C23.9008 55.032 23.9207 55.0272 23.9347 55.0122L35.2353 42.6349L42.8281 43.7152C42.8829 43.7234 42.9377 43.7269 42.9925 43.7269C43.1338 43.7269 43.2702 43.6931 43.402 43.6429C43.4406 43.629 43.4743 43.6102 43.5106 43.5916C43.5526 43.5706 43.5968 43.559 43.6366 43.5322L50.6659 38.8655C50.6916 38.848 50.7055 38.8199 50.73 38.8013C50.758 38.7792 50.793 38.7699 50.8186 38.7453L53.5999 36.1401C55.0471 34.7841 55.2466 32.5628 54.0635 30.9738ZM4.66024 38.8722C4.28111 39.0752 3.85058 39.1159 3.43878 38.9854C3.03039 38.8582 2.69912 38.5793 2.50538 38.2025C2.15305 37.5164 2.35718 36.6811 2.97433 36.2296L5.84793 34.8471L6.53974 36.8689L6.83027 37.7182L4.66024 38.8722ZM12.3102 34.874L8.92333 36.6241L8.36456 34.9907L7.96328 33.8169L12.3967 31.6282L12.3102 34.874ZM45.3402 20.3919C45.3402 22.4009 44.8607 24.2957 44.03 25.9907L34.8832 21.8362C34.7875 20.5821 34.1366 19.4842 33.1589 18.8005L36.3614 8.16849C41.5626 9.82295 45.3402 14.6752 45.3402 20.3919ZM19.5519 20.3919C19.5519 13.3159 25.3363 7.55831 32.446 7.55831C32.9991 7.55831 33.5403 7.60493 34.0759 7.67261L30.9433 18.0713C30.9014 18.0701 30.8617 18.0585 30.8185 18.0585C28.5597 18.0585 26.7222 19.8901 26.7222 22.1419C26.7222 24.3936 28.5597 26.2254 30.8185 26.2254C32.3375 26.2254 33.65 25.3866 34.3582 24.1591L42.8073 27.9975C40.4564 31.1615 36.6938 33.2255 32.4459 33.2255C25.3363 33.2255 19.5519 27.4679 19.5519 20.3919ZM32.5814 22.1419C32.5814 23.1068 31.7903 23.8919 30.8185 23.8919C29.8467 23.8919 29.0556 23.1068 29.0556 22.1419C29.0556 21.1771 29.8467 20.3919 30.8185 20.3919C31.7903 20.3919 32.5814 21.1771 32.5814 22.1419ZM5.39183 55.0074C4.87503 55.5196 4.03843 55.5185 3.52286 55.0087C3.2743 54.7601 3.13785 54.4324 3.13785 54.0835C3.13785 53.7358 3.2743 53.4079 3.52286 53.1618L5.6274 51.0652L7.48941 52.9191L5.39183 55.0074ZM12.4222 63.1743C11.9054 63.6865 11.0677 63.6877 10.552 63.1755C10.3034 62.927 10.1669 62.5993 10.1669 62.2503C10.1669 61.9027 10.3034 61.5748 10.552 61.3287L12.6579 59.231L13.5388 60.1073L14.5211 61.0849L12.4222 63.1743ZM20.0383 55.5862C20.0371 55.5873 20.036 55.5873 20.0348 55.5885L16.1742 59.4385L15.2933 58.5623L14.311 57.5846L18.168 53.7451C18.168 53.7451 18.168 53.7451 18.168 53.744C18.1692 53.7428 18.1703 53.7428 18.1715 53.7417C18.259 53.6542 18.3139 53.5492 18.3676 53.4454C18.3828 53.415 18.4119 53.3893 18.4248 53.3579C18.461 53.2681 18.4667 53.1713 18.4808 53.0767C18.4878 53.0229 18.5112 52.9729 18.5112 52.9179C18.5112 52.8397 18.4831 52.764 18.4669 52.6869C18.4529 52.6169 18.4529 52.5456 18.426 52.4781C18.3817 52.3684 18.3058 52.2716 18.2265 52.177C18.2044 52.1513 18.1962 52.1186 18.1717 52.0942C18.1717 52.0942 18.1717 52.0942 18.1705 52.0942C18.1692 52.0931 18.1692 52.0906 18.1681 52.0895L14.6529 48.5895C14.6156 48.5521 14.5677 48.537 14.5257 48.5055C14.464 48.4577 14.4045 48.4134 14.3356 48.3795C14.2691 48.3468 14.2014 48.327 14.1314 48.3082C14.0568 48.2872 13.9845 48.2709 13.9063 48.265C13.835 48.2604 13.7686 48.2674 13.6975 48.2756C13.6193 48.2849 13.5459 48.2954 13.47 48.3199C13.3964 48.3432 13.3312 48.3793 13.2635 48.4179C13.2203 48.4424 13.1714 48.4506 13.1305 48.4809L9.25133 51.3767L7.28077 49.4143L12.5285 44.1946L22.0674 53.576L20.0383 55.5862ZM34.9544 40.2372C34.9207 40.2325 34.8891 40.2454 34.8553 40.2431C34.7701 40.2384 34.6885 40.2443 34.6034 40.2582C34.5369 40.2699 34.4739 40.2827 34.4108 40.3049C34.3362 40.3306 34.2685 40.3656 34.1996 40.4075C34.1343 40.4472 34.0748 40.4892 34.0176 40.5417C33.9896 40.5661 33.9558 40.5779 33.9301 40.6058L23.6527 51.862L14.185 42.5506L20.3825 36.3859C20.8387 35.9309 20.841 35.1923 20.386 34.735C20.1562 34.5052 19.854 34.392 19.5519 34.3932V34.3921L14.6984 34.4212L14.7591 30.9049L21.5492 30.9633C24.3166 33.7937 28.176 35.5589 32.446 35.5589C33.4027 35.5589 34.3361 35.4598 35.2448 35.2905C35.3323 35.3605 35.4186 35.4317 35.5284 35.476L40.7995 37.5761L41.1331 39.235L41.5228 41.1717L34.9544 40.2372ZM43.7944 40.6269L43.1096 37.2189L46.2736 34.8564L47.102 35.9554L48.3445 37.605L43.7944 40.6269ZM52.0055 34.4341L50.1726 36.1514L48.1356 33.4471L49.9544 32.0529C50.2938 31.7917 50.7221 31.6854 51.1421 31.7403C51.5644 31.7997 51.9378 32.0203 52.1921 32.3621C52.6658 33.0003 52.5853 33.8905 52.0055 34.4341Z"
                fill="#212121" />
            <path
                d="M29.7545 40.5651L25.0668 35.8984C24.613 35.4446 23.8755 35.4446 23.4205 35.8984L18.734 40.5651C18.5147 40.7856 18.391 41.0819 18.391 41.3922C18.391 41.7026 18.5135 42.0001 18.734 42.2194L23.4205 46.8861C23.648 47.1124 23.9468 47.2256 24.2443 47.2256C24.5418 47.2256 24.8404 47.1124 25.0668 46.8861L29.7545 42.2194C29.9738 42.0001 30.0987 41.7026 30.0987 41.3922C30.0987 41.0819 29.9749 40.7844 29.7545 40.5651ZM24.2443 44.4128L21.2109 41.3922L24.2443 38.3717L27.2788 41.3922L24.2443 44.4128Z"
                fill="#212121" />
            <path
                d="M37.5468 11.0923L36.9833 13.358C37.1385 13.3966 40.7844 14.3462 40.7844 18.0586H43.1178C43.1177 13.6461 39.4742 11.5718 37.5468 11.0923Z"
                fill="#212121" />
            <path d="M43.1178 20.3919H40.7844V22.7253H43.1178V20.3919Z" fill="#212121" />
        </symbol>

        <symbol id="diagrama" width="400" height="200" viewBox="-100 -25 400 200">
            <g clip-path="url(#clip0_75273_456)">
                <path d="M32.6496 32.7351H34.9817V43.2296H32.6496V32.7351Z" fill="#2196F3" />
                <path d="M41.978 37.3993H44.3101V43.2296H41.978V37.3993Z" fill="#2196F3" />
                <path d="M23.3211 40.8975H25.6532V43.2296H23.3211V40.8975Z" fill="#2196F3" />
                <path d="M16.3248 39.7314H18.6569V43.2295H16.3248V39.7314Z" fill="#2196F3" />
                <path
                    d="M3.49817 61.8865H59.4689C61.4007 61.8865 62.967 60.3202 62.967 58.3883V53.7241C62.967 51.7923 61.4007 50.2259 59.4689 50.2259H58.3028V21.1469L64.9262 14.8725C66.4635 15.6303 68.3242 15.1702 69.3302 13.7816C70.3369 12.3935 70.1957 10.4821 68.9966 9.25684C67.7975 8.03157 65.8901 7.8488 64.4798 8.82412C63.0701 9.80001 62.569 11.6499 63.2933 13.2037L58.3028 17.9345V15.2443C58.3028 13.3124 56.7365 11.7461 54.8046 11.7461H8.16239C6.23054 11.7461 4.66422 13.3124 4.66422 15.2443V50.2259H3.49817C1.56632 50.2259 0 51.7923 0 53.7241V58.3883C0 60.3202 1.56632 61.8865 3.49817 61.8865ZM66.4652 10.58C67.1091 10.58 67.6312 11.1021 67.6312 11.7461C67.6312 12.39 67.1091 12.9121 66.4652 12.9121C65.8212 12.9121 65.2991 12.39 65.2991 11.7461C65.2991 11.1021 65.8212 10.58 66.4652 10.58ZM6.99634 15.2443C6.99634 14.6003 7.51844 14.0782 8.16239 14.0782H54.8046C55.4486 14.0782 55.9707 14.6003 55.9707 15.2443V20.1414L53.6386 22.3573V17.5764C53.6386 16.9324 53.1165 16.4103 52.4725 16.4103H10.4945C9.85055 16.4103 9.32845 16.9324 9.32845 17.5764V46.7278C9.32845 47.3717 9.85055 47.8938 10.4945 47.8938H52.4725C53.1165 47.8938 53.6386 47.3717 53.6386 46.7278V25.5651L55.9707 23.3554V50.2259H6.99634V15.2443ZM17.4908 30.403C15.9131 30.3984 14.5279 31.4495 14.1083 32.9703C13.6886 34.491 14.3383 36.104 15.6951 36.9091C17.0513 37.7142 18.7793 37.5121 19.9129 36.4149L23.9662 38.4487C24.4371 38.6844 25.0081 38.5739 25.3583 38.1805L33.9745 28.4871L42.4443 34.8338C42.8987 35.1743 43.5329 35.1378 43.9452 34.7478L51.3065 27.7748V45.5617H11.6606V18.7424H51.3065V24.5619L43.0564 32.3747L34.5154 25.9716C34.0303 25.6084 33.3476 25.6767 32.9445 26.1294L24.2099 35.9571L20.9446 34.3242C20.9685 34.1841 20.9833 34.0429 20.989 33.9012C20.989 31.9693 19.4227 30.403 17.4908 30.403ZM18.6569 33.9012C18.6569 34.5451 18.1348 35.0672 17.4908 35.0672C16.8469 35.0672 16.3248 34.5451 16.3248 33.9012C16.3248 33.2572 16.8469 32.7351 17.4908 32.7351C18.1348 32.7351 18.6569 33.2572 18.6569 33.9012ZM25.6532 52.5581H37.3138V53.7241C37.3138 54.3681 36.7917 54.8902 36.1477 54.8902H26.8193C26.1753 54.8902 25.6532 54.3681 25.6532 53.7241V52.5581ZM2.33211 53.7241C2.33211 53.0802 2.85422 52.5581 3.49817 52.5581H23.3211V53.7241C23.3211 55.656 24.8874 57.2223 26.8193 57.2223H36.1477C38.0796 57.2223 39.6459 55.656 39.6459 53.7241V52.5581H59.4689C60.1128 52.5581 60.6349 53.0802 60.6349 53.7241V58.3883C60.6349 59.0323 60.1128 59.5544 59.4689 59.5544H3.49817C2.85422 59.5544 2.33211 59.0323 2.33211 58.3883V53.7241Z"
                    fill="#212121" />
            </g>
            <defs>
                <clipPath id="clip0_75273_456">
                    <rect width="70" height="70" fill="white" />
                </clipPath>
            </defs>
        </symbol>

        <symbol id="reloj" width="400" height="200" viewBox="-100 -25 400 200">
            <path
                d="M71.4614 33.4715C71.4576 14.9819 56.4656 -0.00373771 37.9754 6.99302e-07C19.4858 0.00373911 4.50017 14.9963 4.50391 33.4859C4.50711 48.0502 13.9252 60.9413 27.7995 65.3713C27.9319 65.413 28.0697 65.4343 28.2081 65.4338C28.4719 65.4333 28.7304 65.3628 28.9573 65.2287C29.2527 65.0541 29.4732 64.7764 29.5768 64.449L38.0315 37.6521C40.3429 37.6404 42.2068 35.7568 42.1945 33.4459C42.1827 31.1345 40.2997 29.2706 37.9883 29.2824C37.3666 29.285 36.753 29.4282 36.1944 29.7011L25.0251 18.5302C24.4707 17.9951 23.5879 18.0106 23.0528 18.5644C22.5305 19.1054 22.5305 19.962 23.0528 20.503L34.2162 31.6792C33.3596 33.4277 33.8493 35.5383 35.3895 36.7303L27.3338 62.2647C11.4135 56.4002 3.26169 38.7405 9.12618 22.8203C14.9907 6.90002 32.6503 -1.25183 48.5706 4.61266C64.4909 10.4771 72.6427 28.1374 66.7782 44.0571C63.913 51.8351 58.0261 58.1252 50.4548 61.4989L49.5842 57.3989C49.4251 56.6454 48.6844 56.1636 47.9308 56.3233C47.6931 56.3741 47.4726 56.4857 47.291 56.6475L38.8978 64.1409C38.322 64.653 38.2708 65.5347 38.7835 66.1105C38.9501 66.2974 39.1637 66.4362 39.403 66.5126L50.1188 69.9327C50.8521 70.1682 51.6377 69.765 51.8732 69.0312C51.948 68.7994 51.9603 68.5527 51.9101 68.3145L51.0545 64.2915C63.4452 59.0678 71.4902 46.918 71.4614 33.4715ZM37.9829 32.0766C38.753 32.0766 39.3779 32.7014 39.3779 33.4715C39.3779 34.2422 38.753 34.8665 37.9829 34.8665C37.2123 34.8665 36.588 34.2422 36.588 33.4715C36.588 32.7014 37.2123 32.0766 37.9829 32.0766ZM42.5774 64.5916L47.3551 60.3298L48.6737 66.543L42.5774 64.5916Z"
                fill="#212121" />
            <path
                d="M36.5879 6.96729V9.7572C36.5879 10.5278 37.2122 11.1522 37.9828 11.1522C38.753 11.1522 39.3778 10.5278 39.3778 9.7572V6.96729C39.3778 6.19717 38.753 5.57233 37.9828 5.57233C37.2122 5.57233 36.5879 6.19717 36.5879 6.96729Z"
                fill="#2196F3" />
            <path
                d="M11.4787 32.0765C10.7081 32.0765 10.0837 32.7014 10.0837 33.4715C10.0837 34.2421 10.7081 34.8665 11.4787 34.8665H14.2686C15.0393 34.8665 15.6636 34.2421 15.6636 33.4715C15.6636 32.7014 15.0393 32.0765 14.2686 32.0765H11.4787Z"
                fill="#2196F3" />
            <path
                d="M64.4865 34.8665C65.2572 34.8665 65.8815 34.2421 65.8815 33.4715C65.8815 32.7014 65.2572 32.0765 64.4865 32.0765H61.6966C60.9265 32.0765 60.3016 32.7014 60.3016 33.4715C60.3016 34.2421 60.9265 34.8665 61.6966 34.8665H64.4865Z"
                fill="#2196F3" />
            <defs>
                <filter id="filter0_d_75273_446" x="-1" y="0" width="78" height="78"
                    filterUnits="userSpaceOnUse" color-interpolation-filters="sRGB">
                    <feFlood flood-opacity="0" result="BackgroundImageFix" />
                    <feColorMatrix in="SourceAlpha" type="matrix"
                        values="0 0 0 0 0 0 0 0 0 0 0 0 0 0 0 0 0 0 127 0" result="hardAlpha" />
                    <feOffset dy="4" />
                    <feGaussianBlur stdDeviation="2" />
                    <feComposite in2="hardAlpha" operator="out" />
                    <feColorMatrix type="matrix" values="0 0 0 0 0 0 0 0 0 0 0 0 0 0 0 0 0 0 0.25 0" />
                    <feBlend mode="normal" in2="BackgroundImageFix"
                        result="effect1_dropShadow_75273_446" />
                    <feBlend mode="normal" in="SourceGraphic" in2="effect1_dropShadow_75273_446"
                        result="shape" />
                </filter>
                <clipPath id="clip0_75273_446">
                    <rect width="70" height="70" fill="white" transform="translate(3)" />
                </clipPath>
            </defs>
        </symbol>

        <!-- REDES -->
        <symbol id="facebook" width="44" height="44" viewBox="-17 -17 68 68">
            <path
                d="M19 6h5v-6h-5c-3.86 0-7 3.14-7 7v3h-4v6h4v16h6v-16h5l1-6h-6v-3c0-0.542 0.458-1 1-1z"></path>
        </symbol>

        <symbol id="instagram" width="44" height="44" viewBox="-17 -17 68 68">
            <path
                d="M16 2.881c4.275 0 4.781 0.019 6.462 0.094 1.563 0.069 2.406 0.331 2.969 0.55 0.744 0.288 1.281 0.638 1.837 1.194 0.563 0.563 0.906 1.094 1.2 1.838 0.219 0.563 0.481 1.412 0.55 2.969 0.075 1.688 0.094 2.194 0.094 6.463s-0.019 4.781-0.094 6.463c-0.069 1.563-0.331 2.406-0.55 2.969-0.288 0.744-0.637 1.281-1.194 1.837-0.563 0.563-1.094 0.906-1.837 1.2-0.563 0.219-1.413 0.481-2.969 0.55-1.688 0.075-2.194 0.094-6.463 0.094s-4.781-0.019-6.463-0.094c-1.563-0.069-2.406-0.331-2.969-0.55-0.744-0.288-1.281-0.637-1.838-1.194-0.563-0.563-0.906-1.094-1.2-1.837-0.219-0.563-0.481-1.413-0.55-2.969-0.075-1.688-0.094-2.194-0.094-6.463s0.019-4.781 0.094-6.463c0.069-1.563 0.331-2.406 0.55-2.969 0.288-0.744 0.638-1.281 1.194-1.838 0.563-0.563 1.094-0.906 1.838-1.2 0.563-0.219 1.412-0.481 2.969-0.55 1.681-0.075 2.188-0.094 6.463-0.094zM16 0c-4.344 0-4.887 0.019-6.594 0.094-1.7 0.075-2.869 0.35-3.881 0.744-1.056 0.412-1.95 0.956-2.837 1.85-0.894 0.888-1.438 1.781-1.85 2.831-0.394 1.019-0.669 2.181-0.744 3.881-0.075 1.713-0.094 2.256-0.094 6.6s0.019 4.887 0.094 6.594c0.075 1.7 0.35 2.869 0.744 3.881 0.413 1.056 0.956 1.95 1.85 2.837 0.887 0.887 1.781 1.438 2.831 1.844 1.019 0.394 2.181 0.669 3.881 0.744 1.706 0.075 2.25 0.094 6.594 0.094s4.888-0.019 6.594-0.094c1.7-0.075 2.869-0.35 3.881-0.744 1.050-0.406 1.944-0.956 2.831-1.844s1.438-1.781 1.844-2.831c0.394-1.019 0.669-2.181 0.744-3.881 0.075-1.706 0.094-2.25 0.094-6.594s-0.019-4.887-0.094-6.594c-0.075-1.7-0.35-2.869-0.744-3.881-0.394-1.063-0.938-1.956-1.831-2.844-0.887-0.887-1.781-1.438-2.831-1.844-1.019-0.394-2.181-0.669-3.881-0.744-1.712-0.081-2.256-0.1-6.6-0.1v0z"></path>
            <path
                d="M16 7.781c-4.537 0-8.219 3.681-8.219 8.219s3.681 8.219 8.219 8.219 8.219-3.681 8.219-8.219c0-4.537-3.681-8.219-8.219-8.219zM16 21.331c-2.944 0-5.331-2.387-5.331-5.331s2.387-5.331 5.331-5.331c2.944 0 5.331 2.387 5.331 5.331s-2.387 5.331-5.331 5.331z"></path>
            <path
                d="M26.462 7.456c0 1.060-0.859 1.919-1.919 1.919s-1.919-0.859-1.919-1.919c0-1.060 0.859-1.919 1.919-1.919s1.919 0.859 1.919 1.919z"></path>
        </symbol>

        <symbol id="twitter" width="44" height="44" viewBox="-17 -16 68 68">
            <path
                d="M32 7.075c-1.175 0.525-2.444 0.875-3.769 1.031 1.356-0.813 2.394-2.1 2.887-3.631-1.269 0.75-2.675 1.3-4.169 1.594-1.2-1.275-2.906-2.069-4.794-2.069-3.625 0-6.563 2.938-6.563 6.563 0 0.512 0.056 1.012 0.169 1.494-5.456-0.275-10.294-2.888-13.531-6.862-0.563 0.969-0.887 2.1-0.887 3.3 0 2.275 1.156 4.287 2.919 5.463-1.075-0.031-2.087-0.331-2.975-0.819 0 0.025 0 0.056 0 0.081 0 3.181 2.263 5.838 5.269 6.437-0.55 0.15-1.131 0.231-1.731 0.231-0.425 0-0.831-0.044-1.237-0.119 0.838 2.606 3.263 4.506 6.131 4.563-2.25 1.762-5.075 2.813-8.156 2.813-0.531 0-1.050-0.031-1.569-0.094 2.913 1.869 6.362 2.95 10.069 2.95 12.075 0 18.681-10.006 18.681-18.681 0-0.287-0.006-0.569-0.019-0.85 1.281-0.919 2.394-2.075 3.275-3.394z"></path>
        </symbol>

        <symbol id="linkedin" width="44" height="44" viewBox="-15 -10 59 59">
            <path
                d="M12 12h5.535v2.837h0.079c0.77-1.381 2.655-2.837 5.464-2.837 5.842 0 6.922 3.637 6.922 8.367v9.633h-5.769v-8.54c0-2.037-0.042-4.657-3.001-4.657-3.005 0-3.463 2.218-3.463 4.509v8.688h-5.767v-18z"></path>
            <path d="M2 12h6v18h-6v-18z"></path>
            <path d="M8 7c0 1.657-1.343 3-3 3s-3-1.343-3-3c0-1.657 1.343-3 3-3s3 1.343 3 3z"></path>
        </symbol>

        <!-- MODAL  -->

        <symbol id="email-modal" width="18" height="18" viewBox="1 0 18 18">
        <path d="M15 3H3C2.175 3 1.5075 3.675 1.5075 4.5L1.5 13.5C1.5 14.325 2.175 15 3 15H15C15.825 15 16.5 14.325 16.5 13.5V4.5C16.5 3.675 15.825 3 15 3ZM14.7 6.1875L9.3975 9.5025C9.1575 9.6525 8.8425 9.6525 8.6025 9.5025L3.3 6.1875C3.1125 6.0675 3 5.865 3 5.6475C3 5.145 3.5475 4.845 3.975 5.1075L9 8.25L14.025 5.1075C14.4525 4.845 15 5.145 15 5.6475C15 5.865 14.8875 6.0675 14.7 6.1875Z" fill="#"/>
        </symbol>

        <symbol id="contact-modal" width="14" height="18" viewBox="0 -2 14 18">
        <path d="M11.996 9.12256L10.1579 8.91269C9.71641 8.86203 9.2822 9.01401 8.97102 9.32519L7.63945 10.6568C5.59144 9.61466 3.91251 7.94296 2.87041 5.8877L4.20922 4.54888C4.5204 4.2377 4.67237 3.80349 4.62171 3.36205L4.41185 1.53836C4.325 0.807445 3.70988 0.257446 2.97173 0.257446H1.71976C0.902004 0.257446 0.221746 0.937708 0.272403 1.75547C0.655953 7.93572 5.59868 12.8712 11.7717 13.2548C12.5894 13.3054 13.2697 12.6252 13.2697 11.8074V10.5555C13.2769 9.82453 12.7269 9.2094 11.996 9.12256Z" fill="#"/>
        </symbol>

        <symbol id="name-modal" width="12" height="14" viewBox="0 -2 12 14">
        <path d="M6 6C7.6575 6 9 4.6575 9 3C9 1.3425 7.6575 0 6 0C4.3425 0 3 1.3425 3 3C3 4.6575 4.3425 6 6 6ZM6 7.5C3.9975 7.5 0 8.505 0 10.5V11.25C0 11.6625 0.3375 12 0.75 12H11.25C11.6625 12 12 11.6625 12 11.25V10.5C12 8.505 8.0025 7.5 6 7.5Z" fill="#"/>
        </symbol>

        <symbol id="enviar-sub" width="24" height="24" viewBox="0 0 24 24">
        <path d="M24 0L0 13.5L7.66994 16.3407L19.5 5.25002L10.5017 17.3896L10.509 17.3923L10.5 17.3896V24.0001L14.8013 18.982L20.2501 21.0001L24 0Z" fill="white"/>
        </symbol>
    </defs>

</svg>